<svg xmlns="http://www.w3.org/2000/svg" xmlns:xlink="http://www.w3.org/1999/xlink" width="500" zoomAndPan="magnify" viewBox="0 0 375 374.999991" height="500" preserveAspectRatio="xMidYMid meet" version="1.0"><defs><g/><clipPath id="9fe9740f89"><path d="M 161.261719 165.613281 L 348.964844 165.613281 L 348.964844 209.386719 L 161.261719 209.386719 Z M 161.261719 165.613281 " clip-rule="nonzero"/></clipPath><clipPath id="0ca79f2441"><path d="M 193.867188 165.613281 L 342.28125 165.613281 C 344.429688 165.613281 346.414062 166.765625 347.480469 168.636719 C 348.546875 170.503906 348.527344 172.796875 347.429688 174.648438 L 332.210938 200.351562 C 328.894531 205.953125 322.867188 209.386719 316.359375 209.386719 L 167.945312 209.386719 C 165.796875 209.386719 163.8125 208.234375 162.746094 206.363281 C 161.683594 204.496094 161.703125 202.203125 162.796875 200.351562 L 178.019531 174.648438 C 181.335938 169.046875 187.359375 165.613281 193.867188 165.613281 Z M 193.867188 165.613281 " clip-rule="nonzero"/></clipPath></defs><rect x="-37.5" width="450" fill="#ffffff" y="-37.499999" height="449.999989" fill-opacity="1"/><rect x="-37.5" width="450" fill="#ffffff" y="-37.499999" height="449.999989" fill-opacity="1"/><g clip-path="url(#9fe9740f89)"><g clip-path="url(#0ca79f2441)"><path fill="#0b65b4" d="M 157.445312 165.613281 L 352.78125 165.613281 L 352.78125 209.386719 L 157.445312 209.386719 Z M 157.445312 165.613281 " fill-opacity="1" fill-rule="nonzero"/></g></g><g fill="#0b65b4" fill-opacity="1"><g transform="translate(27.246097, 204.785583)"><g><path d="M 3.09375 -30.984375 L 17.75 -30.984375 C 21.226562 -30.984375 23.992188 -30.28125 26.046875 -28.875 C 28.097656 -27.476562 29.125 -25.597656 29.125 -23.234375 C 29.125 -21.617188 28.648438 -20.195312 27.703125 -18.96875 C 26.765625 -17.738281 25.46875 -16.890625 23.8125 -16.421875 C 25.757812 -16.035156 27.304688 -15.132812 28.453125 -13.71875 C 29.609375 -12.300781 30.1875 -10.59375 30.1875 -8.59375 C 30.1875 -5.957031 29.113281 -3.863281 26.96875 -2.3125 C 24.832031 -0.769531 21.9375 0 18.28125 0 L 3.09375 0 Z M 10.9375 -24.96875 L 10.9375 -18.59375 L 17.3125 -18.59375 C 18.457031 -18.59375 19.367188 -18.878906 20.046875 -19.453125 C 20.734375 -20.023438 21.078125 -20.816406 21.078125 -21.828125 C 21.078125 -22.796875 20.734375 -23.5625 20.046875 -24.125 C 19.367188 -24.6875 18.457031 -24.96875 17.3125 -24.96875 Z M 10.9375 -12.921875 L 10.9375 -6.0625 L 17.3125 -6.0625 C 18.78125 -6.0625 19.9375 -6.367188 20.78125 -6.984375 C 21.625 -7.609375 22.046875 -8.46875 22.046875 -9.5625 C 22.046875 -10.59375 21.625 -11.410156 20.78125 -12.015625 C 19.9375 -12.617188 18.78125 -12.921875 17.3125 -12.921875 Z M 10.9375 -12.921875 "/></g></g></g><g fill="#0b65b4" fill-opacity="1"><g transform="translate(56.3696, 204.785583)"><g><path d="M 10.71875 -23.859375 L 10.71875 -19.828125 C 12.394531 -22.691406 14.972656 -24.15625 18.453125 -24.21875 L 18.453125 -17.3125 C 16.273438 -17.519531 14.488281 -17.15625 13.09375 -16.21875 C 11.707031 -15.289062 10.914062 -13.972656 10.71875 -12.265625 L 10.71875 0 L 3.046875 0 L 3.046875 -23.859375 Z M 10.71875 -23.859375 "/></g></g></g><g fill="#0b65b4" fill-opacity="1"><g transform="translate(72.74576, 204.785583)"><g><path d="M 4 -33.609375 C 4.757812 -34.367188 5.726562 -34.75 6.90625 -34.75 C 8.082031 -34.75 9.046875 -34.367188 9.796875 -33.609375 C 10.554688 -32.859375 10.9375 -31.894531 10.9375 -30.71875 C 10.9375 -29.539062 10.554688 -28.566406 9.796875 -27.796875 C 9.046875 -27.023438 8.082031 -26.640625 6.90625 -26.640625 C 5.726562 -26.640625 4.757812 -27.023438 4 -27.796875 C 3.25 -28.566406 2.875 -29.539062 2.875 -30.71875 C 2.875 -31.894531 3.25 -32.859375 4 -33.609375 Z M 10.671875 0 L 3.046875 0 L 3.046875 -23.859375 L 10.671875 -23.859375 Z M 10.671875 0 "/></g></g></g><g fill="#0b65b4" fill-opacity="1"><g transform="translate(83.98756, 204.785583)"><g><path d="M 25.84375 -23.859375 L 25.84375 -2.171875 C 25.84375 1.191406 24.65625 3.875 22.28125 5.875 C 19.90625 7.882812 16.785156 8.890625 12.921875 8.890625 C 8.972656 8.890625 5.429688 7.84375 2.296875 5.75 L 4.953125 0.578125 C 7.253906 2.171875 9.71875 2.96875 12.34375 2.96875 C 14.175781 2.96875 15.613281 2.523438 16.65625 1.640625 C 17.707031 0.753906 18.234375 -0.441406 18.234375 -1.953125 L 18.234375 -4.46875 C 16.609375 -2.34375 14.320312 -1.28125 11.375 -1.28125 C 8.332031 -1.28125 5.859375 -2.34375 3.953125 -4.46875 C 2.054688 -6.59375 1.109375 -9.382812 1.109375 -12.84375 C 1.109375 -16.207031 2.035156 -18.925781 3.890625 -21 C 5.753906 -23.082031 8.191406 -24.125 11.203125 -24.125 C 14.242188 -24.15625 16.585938 -23.09375 18.234375 -20.9375 L 18.234375 -23.859375 Z M 13.28125 -6.8125 C 14.757812 -6.8125 15.953125 -7.347656 16.859375 -8.421875 C 17.773438 -9.503906 18.234375 -10.898438 18.234375 -12.609375 C 18.234375 -14.359375 17.773438 -15.769531 16.859375 -16.84375 C 15.953125 -17.914062 14.757812 -18.453125 13.28125 -18.453125 C 11.769531 -18.453125 10.550781 -17.914062 9.625 -16.84375 C 8.695312 -15.769531 8.234375 -14.359375 8.234375 -12.609375 C 8.234375 -10.898438 8.695312 -9.503906 9.625 -8.421875 C 10.550781 -7.347656 11.769531 -6.8125 13.28125 -6.8125 Z M 13.28125 -6.8125 "/></g></g></g><g fill="#0b65b4" fill-opacity="1"><g transform="translate(110.10127, 204.785583)"><g><path d="M 18.953125 -24.21875 C 21.578125 -24.21875 23.6875 -23.382812 25.28125 -21.71875 C 26.875 -20.050781 27.671875 -17.828125 27.671875 -15.046875 L 27.671875 0 L 20.015625 0 L 20.015625 -12.921875 C 20.015625 -14.304688 19.632812 -15.40625 18.875 -16.21875 C 18.125 -17.03125 17.097656 -17.4375 15.796875 -17.4375 C 14.328125 -17.4375 13.148438 -16.90625 12.265625 -15.84375 C 11.378906 -14.78125 10.9375 -13.425781 10.9375 -11.78125 L 10.9375 0 L 3.28125 0 L 3.28125 -32.84375 L 10.9375 -32.84375 L 10.9375 -19.921875 C 12.613281 -22.722656 15.285156 -24.15625 18.953125 -24.21875 Z M 18.953125 -24.21875 "/></g></g></g><g fill="#0b65b4" fill-opacity="1"><g transform="translate(137.587093, 204.785583)"><g><path d="M 16.953125 -6.59375 L 18.453125 -1.28125 C 16.597656 -0.1875 14.472656 0.359375 12.078125 0.359375 C 9.722656 0.359375 7.8125 -0.296875 6.34375 -1.609375 C 4.882812 -2.921875 4.15625 -4.789062 4.15625 -7.21875 L 4.15625 -17.75 L 0.84375 -17.75 L 0.84375 -22.75 L 4.15625 -22.75 L 4.15625 -29.390625 L 11.78125 -29.390625 L 11.78125 -22.796875 L 18.015625 -22.796875 L 18.015625 -17.75 L 11.78125 -17.75 L 11.78125 -8.40625 C 11.78125 -7.488281 11.960938 -6.816406 12.328125 -6.390625 C 12.691406 -5.960938 13.242188 -5.765625 13.984375 -5.796875 C 14.691406 -5.796875 15.679688 -6.0625 16.953125 -6.59375 Z M 16.953125 -6.59375 "/></g></g></g><g fill="#ffffff" fill-opacity="1"><g transform="translate(178.300452, 196.895107)"><g><path d="M 9.5 -16.84375 C 10.738281 -16.84375 11.957031 -16.585938 13.15625 -16.078125 C 14.351562 -15.566406 15.375 -14.882812 16.21875 -14.03125 L 13.765625 -11.125 C 13.222656 -11.789062 12.570312 -12.316406 11.8125 -12.703125 C 11.0625 -13.097656 10.3125 -13.296875 9.5625 -13.296875 C 8.25 -13.296875 7.144531 -12.828125 6.25 -11.890625 C 5.363281 -10.960938 4.921875 -9.816406 4.921875 -8.453125 C 4.921875 -7.046875 5.363281 -5.875 6.25 -4.9375 C 7.144531 -4 8.25 -3.53125 9.5625 -3.53125 C 10.269531 -3.53125 11 -3.703125 11.75 -4.046875 C 12.507812 -4.398438 13.179688 -4.878906 13.765625 -5.484375 L 16.25 -2.859375 C 15.34375 -1.941406 14.269531 -1.203125 13.03125 -0.640625 C 11.800781 -0.0859375 10.578125 0.1875 9.359375 0.1875 C 6.835938 0.1875 4.742188 -0.628906 3.078125 -2.265625 C 1.410156 -3.898438 0.578125 -5.945312 0.578125 -8.40625 C 0.578125 -10.800781 1.425781 -12.804688 3.125 -14.421875 C 4.820312 -16.035156 6.945312 -16.84375 9.5 -16.84375 Z M 9.5 -16.84375 "/></g></g></g><g fill="#ffffff" fill-opacity="1"><g transform="translate(193.450307, 196.895107)"><g><path d="M 7.609375 -13 C 9.710938 -13 11.40625 -12.398438 12.6875 -11.203125 C 13.976562 -10.003906 14.625 -8.414062 14.625 -6.4375 C 14.625 -4.46875 13.976562 -2.878906 12.6875 -1.671875 C 11.40625 -0.460938 9.710938 0.140625 7.609375 0.140625 C 5.492188 0.140625 3.789062 -0.460938 2.5 -1.671875 C 1.21875 -2.878906 0.578125 -4.46875 0.578125 -6.4375 C 0.578125 -8.414062 1.21875 -10.003906 2.5 -11.203125 C 3.789062 -12.398438 5.492188 -13 7.609375 -13 Z M 7.609375 -9.734375 C 6.753906 -9.734375 6.054688 -9.421875 5.515625 -8.796875 C 4.984375 -8.179688 4.71875 -7.378906 4.71875 -6.390625 C 4.71875 -5.390625 4.984375 -4.582031 5.515625 -3.96875 C 6.054688 -3.351562 6.753906 -3.046875 7.609375 -3.046875 C 8.453125 -3.046875 9.140625 -3.351562 9.671875 -3.96875 C 10.203125 -4.582031 10.46875 -5.390625 10.46875 -6.390625 C 10.46875 -7.378906 10.203125 -8.179688 9.671875 -8.796875 C 9.140625 -9.421875 8.453125 -9.734375 7.609375 -9.734375 Z M 7.609375 -9.734375 "/></g></g></g><g fill="#ffffff" fill-opacity="1"><g transform="translate(207.287957, 196.895107)"><g><path d="M 18.828125 -13.046875 C 20.242188 -13.046875 21.367188 -12.597656 22.203125 -11.703125 C 23.035156 -10.804688 23.453125 -9.609375 23.453125 -8.109375 L 23.453125 0 L 19.34375 0 L 19.34375 -6.96875 C 19.34375 -7.726562 19.144531 -8.328125 18.75 -8.765625 C 18.351562 -9.203125 17.8125 -9.421875 17.125 -9.421875 C 16.363281 -9.410156 15.753906 -9.117188 15.296875 -8.546875 C 14.847656 -7.984375 14.625 -7.257812 14.625 -6.375 L 14.625 0 L 10.5 0 L 10.5 -6.96875 C 10.5 -7.726562 10.300781 -8.328125 9.90625 -8.765625 C 9.519531 -9.203125 8.984375 -9.421875 8.296875 -9.421875 C 7.523438 -9.410156 6.90625 -9.117188 6.4375 -8.546875 C 5.976562 -7.972656 5.75 -7.25 5.75 -6.375 L 5.75 0 L 1.640625 0 L 1.640625 -12.859375 L 5.75 -12.859375 L 5.75 -10.734375 C 6.625 -12.242188 8.039062 -13.015625 10 -13.046875 C 11.03125 -13.046875 11.921875 -12.785156 12.671875 -12.265625 C 13.429688 -11.753906 13.972656 -11.046875 14.296875 -10.140625 C 15.140625 -12.046875 16.648438 -13.015625 18.828125 -13.046875 Z M 18.828125 -13.046875 "/></g></g></g><g fill="#ffffff" fill-opacity="1"><g transform="translate(230.668909, 196.895107)"><g><path d="M 9.734375 -13 C 11.546875 -13 13.003906 -12.390625 14.109375 -11.171875 C 15.210938 -9.960938 15.765625 -8.363281 15.765625 -6.375 C 15.765625 -4.414062 15.222656 -2.835938 14.140625 -1.640625 C 13.066406 -0.453125 11.628906 0.140625 9.828125 0.140625 C 8.140625 0.140625 6.828125 -0.476562 5.890625 -1.71875 L 5.890625 4.625 L 1.765625 4.625 L 1.765625 -12.859375 L 5.890625 -12.859375 L 5.890625 -11.171875 C 6.847656 -12.390625 8.128906 -13 9.734375 -13 Z M 8.734375 -3.125 C 9.585938 -3.125 10.28125 -3.4375 10.8125 -4.0625 C 11.351562 -4.695312 11.625 -5.503906 11.625 -6.484375 C 11.625 -7.472656 11.351562 -8.273438 10.8125 -8.890625 C 10.28125 -9.515625 9.585938 -9.828125 8.734375 -9.828125 C 7.898438 -9.828125 7.21875 -9.515625 6.6875 -8.890625 C 6.15625 -8.273438 5.890625 -7.472656 5.890625 -6.484375 C 5.890625 -5.484375 6.148438 -4.671875 6.671875 -4.046875 C 7.203125 -3.429688 7.890625 -3.125 8.734375 -3.125 Z M 8.734375 -3.125 "/></g></g></g><g fill="#ffffff" fill-opacity="1"><g transform="translate(245.65176, 196.895107)"><g><path d="M 7.609375 -13 C 9.710938 -13 11.40625 -12.398438 12.6875 -11.203125 C 13.976562 -10.003906 14.625 -8.414062 14.625 -6.4375 C 14.625 -4.46875 13.976562 -2.878906 12.6875 -1.671875 C 11.40625 -0.460938 9.710938 0.140625 7.609375 0.140625 C 5.492188 0.140625 3.789062 -0.460938 2.5 -1.671875 C 1.21875 -2.878906 0.578125 -4.46875 0.578125 -6.4375 C 0.578125 -8.414062 1.21875 -10.003906 2.5 -11.203125 C 3.789062 -12.398438 5.492188 -13 7.609375 -13 Z M 7.609375 -9.734375 C 6.753906 -9.734375 6.054688 -9.421875 5.515625 -8.796875 C 4.984375 -8.179688 4.71875 -7.378906 4.71875 -6.390625 C 4.71875 -5.390625 4.984375 -4.582031 5.515625 -3.96875 C 6.054688 -3.351562 6.753906 -3.046875 7.609375 -3.046875 C 8.453125 -3.046875 9.140625 -3.351562 9.671875 -3.96875 C 10.203125 -4.582031 10.46875 -5.390625 10.46875 -6.390625 C 10.46875 -7.378906 10.203125 -8.179688 9.671875 -8.796875 C 9.140625 -9.421875 8.453125 -9.734375 7.609375 -9.734375 Z M 7.609375 -9.734375 "/></g></g></g><g fill="#ffffff" fill-opacity="1"><g transform="translate(259.489412, 196.895107)"><g><path d="M 10.0625 -13.046875 C 11.476562 -13.046875 12.613281 -12.597656 13.46875 -11.703125 C 14.332031 -10.804688 14.765625 -9.609375 14.765625 -8.109375 L 14.765625 0 L 10.671875 0 L 10.671875 -6.96875 C 10.671875 -7.71875 10.46875 -8.3125 10.0625 -8.75 C 9.65625 -9.1875 9.101562 -9.40625 8.40625 -9.40625 C 7.664062 -9.40625 7.0625 -9.164062 6.59375 -8.6875 C 6.125 -8.207031 5.851562 -7.578125 5.78125 -6.796875 L 5.78125 0 L 1.640625 0 L 1.640625 -12.859375 L 5.78125 -12.859375 L 5.78125 -10.765625 C 6.6875 -12.253906 8.113281 -13.015625 10.0625 -13.046875 Z M 10.0625 -13.046875 "/></g></g></g><g fill="#ffffff" fill-opacity="1"><g transform="translate(274.185963, 196.895107)"><g><path d="M 7.28125 -13 C 9.507812 -13 11.179688 -12.316406 12.296875 -10.953125 C 13.421875 -9.585938 13.910156 -7.710938 13.765625 -5.328125 L 4.71875 -5.328125 C 4.925781 -4.554688 5.289062 -3.960938 5.8125 -3.546875 C 6.34375 -3.140625 6.988281 -2.9375 7.75 -2.9375 C 8.925781 -2.9375 9.953125 -3.375 10.828125 -4.25 L 13 -2.125 C 11.613281 -0.613281 9.742188 0.140625 7.390625 0.140625 C 5.304688 0.140625 3.648438 -0.453125 2.421875 -1.640625 C 1.191406 -2.835938 0.578125 -4.421875 0.578125 -6.390625 C 0.578125 -8.378906 1.191406 -9.976562 2.421875 -11.1875 C 3.648438 -12.394531 5.269531 -13 7.28125 -13 Z M 4.65625 -7.546875 L 9.8125 -7.546875 C 9.8125 -8.316406 9.582031 -8.941406 9.125 -9.421875 C 8.675781 -9.898438 8.078125 -10.140625 7.328125 -10.140625 C 6.628906 -10.140625 6.039062 -9.90625 5.5625 -9.4375 C 5.082031 -8.96875 4.78125 -8.335938 4.65625 -7.546875 Z M 4.65625 -7.546875 "/></g></g></g><g fill="#ffffff" fill-opacity="1"><g transform="translate(287.188581, 196.895107)"><g><path d="M 10.0625 -13.046875 C 11.476562 -13.046875 12.613281 -12.597656 13.46875 -11.703125 C 14.332031 -10.804688 14.765625 -9.609375 14.765625 -8.109375 L 14.765625 0 L 10.671875 0 L 10.671875 -6.96875 C 10.671875 -7.71875 10.46875 -8.3125 10.0625 -8.75 C 9.65625 -9.1875 9.101562 -9.40625 8.40625 -9.40625 C 7.664062 -9.40625 7.0625 -9.164062 6.59375 -8.6875 C 6.125 -8.207031 5.851562 -7.578125 5.78125 -6.796875 L 5.78125 0 L 1.640625 0 L 1.640625 -12.859375 L 5.78125 -12.859375 L 5.78125 -10.765625 C 6.6875 -12.253906 8.113281 -13.015625 10.0625 -13.046875 Z M 10.0625 -13.046875 "/></g></g></g><g fill="#ffffff" fill-opacity="1"><g transform="translate(301.885125, 196.895107)"><g><path d="M 9.140625 -3.5625 L 9.953125 -0.6875 C 8.953125 -0.101562 7.804688 0.1875 6.515625 0.1875 C 5.242188 0.1875 4.210938 -0.164062 3.421875 -0.875 C 2.640625 -1.582031 2.25 -2.585938 2.25 -3.890625 L 2.25 -9.5625 L 0.453125 -9.5625 L 0.453125 -12.265625 L 2.25 -12.265625 L 2.25 -15.84375 L 6.34375 -15.84375 L 6.34375 -12.28125 L 9.703125 -12.28125 L 9.703125 -9.5625 L 6.34375 -9.5625 L 6.34375 -4.53125 C 6.34375 -4.039062 6.441406 -3.679688 6.640625 -3.453125 C 6.835938 -3.222656 7.140625 -3.113281 7.546875 -3.125 C 7.921875 -3.125 8.453125 -3.269531 9.140625 -3.5625 Z M 9.140625 -3.5625 "/></g></g></g></svg>